<?xml version="1.0" encoding="UTF-8" standalone="no"?>
<!-- Created with Inkscape (http://www.inkscape.org/) -->

<svg
   xmlns:dc="http://purl.org/dc/elements/1.1/"
   xmlns:cc="http://creativecommons.org/ns#"
   xmlns:rdf="http://www.w3.org/1999/02/22-rdf-syntax-ns#"
   xmlns:svg="http://www.w3.org/2000/svg"
   xmlns="http://www.w3.org/2000/svg"
   xmlns:sodipodi="http://sodipodi.sourceforge.net/DTD/sodipodi-0.dtd"
   xmlns:inkscape="http://www.inkscape.org/namespaces/inkscape"
   width="99.675865mm"
   height="107.78464mm"
   viewBox="0 0 99.675865 107.78464"
   version="1.1"
   id="svg8"
   inkscape:version="0.92.4 (5da689c313, 2019-01-14)"
   sodipodi:docname="logoQ.svg">
  <defs
     id="defs2" />
  <sodipodi:namedview
     id="base"
     pagecolor="#ffffff"
     bordercolor="#666666"
     borderopacity="1.0"
     inkscape:pageopacity="0.0"
     inkscape:pageshadow="2"
     inkscape:zoom="0.35"
     inkscape:cx="-103.68077"
     inkscape:cy="-123.45575"
     inkscape:document-units="mm"
     inkscape:current-layer="layer1"
     showgrid="false"
     inkscape:window-width="1920"
     inkscape:window-height="1001"
     inkscape:window-x="-9"
     inkscape:window-y="-9"
     inkscape:window-maximized="1" />
  <metadata
     id="metadata5">
    <rdf:RDF>
      <cc:Work
         rdf:about="">
        <dc:format>image/svg+xml</dc:format>
        <dc:type
           rdf:resource="http://purl.org/dc/dcmitype/StillImage" />
        <dc:title></dc:title>
      </cc:Work>
    </rdf:RDF>
  </metadata>
  <g
     inkscape:label="Layer 1"
     inkscape:groupmode="layer"
     id="layer1"
     transform="translate(-8.9113709,-8.3843606)">
    <g
       aria-label="Q"
       transform="matrix(1.4624611,0,0,1.2335867,-378.80077,-450.12616)"
       style="font-style:normal;font-weight:normal;font-size:40px;line-height:1.25;font-family:sans-serif;letter-spacing:0px;word-spacing:0px;fill:#000000;fill-opacity:1;stroke:none"
       id="flowRoot815">
      <path
         d="m 331.8125,443.2202 c -2.90625,5.76562 -7.78125,8.34375 -17.01563,8.34375 -7.45312,0 -20.8125,-2.67188 -30.42187,-4.59375 5.67187,-1.64063 8.4375,-4.03125 14.20312,-4.6875 v -0.0469 c 16.21875,-1.54687 27.46875,-15.51562 27.46875,-35.76562 0,-21.98438 -12.1875,-34.78125 -30.42187,-34.78125 -17.85938,0 -30.51563,14.4375 -30.51563,35.90625 0,20.48437 10.59375,33 26.76563,34.59375 -3.5625,1.3125 -6.375,3.14062 -10.82813,4.3125 -2.4375,-0.51563 -5.10937,-0.79688 -7.21875,-0.79688 -3.5625,0 -5.20312,0.79688 -5.20312,2.01563 0,1.35937 1.82812,1.92187 4.45312,1.92187 2.48438,0 5.4375,-0.5625 7.96875,-1.40625 0.5625,0.1875 1.40625,0.375 2.29688,0.65625 12.28125,4.125 20.71875,10.17188 30.89062,10.17188 6.51563,0 10.54688,-2.10938 12.98438,-4.3125 2.48437,-2.29688 4.5,-5.67188 6.04687,-10.96875 z m -57.14063,-36 c 0,-19.875 8.0625,-33.79688 20.57813,-33.79688 11.8125,0 21.1875,12.98438 21.1875,33.42188 0,19.875 -8.0625,33.79687 -20.53125,33.79687 -11.8125,0 -21.23438,-12.98437 -21.23438,-33.42187 z"
         style="font-style:normal;font-variant:normal;font-weight:normal;font-stretch:normal;font-size:96px;font-family:'Playfair Display';-inkscape-font-specification:'Playfair Display'"
         id="path823"
         inkscape:connector-curvature="0" />
    </g>
  </g>
</svg>
